<svg xmlns="http://www.w3.org/2000/svg" xmlns:xlink="http://www.w3.org/1999/xlink" viewBox="0 0 70 62">
  <defs>
    <style>
      .cls-1 {
        clip-path: url(#clip-charges);
      }

      .cls-2 {
        fill: #fff;
      }
    </style>
    <clipPath id="clip-charges">
      <rect width="70" height="62"/>
    </clipPath>
  </defs>
  <g id="charges" class="cls-1">
    <path id="Path_13" data-name="Path 13" class="cls-2" d="M9.014,36.077c0-.876-.012-1.747.006-2.623.006-.271-.092-.346-.334-.381A12.914,12.914,0,0,1,5.024,32a8.63,8.63,0,0,1-3.811-3.275A8.535,8.535,0,0,1,0,24.257c-.006-.2.086-.219.242-.219,1.689.006,3.385.006,5.074,0,.2,0,.271.069.294.254a5.2,5.2,0,0,0,.565,1.8A3.79,3.79,0,0,0,7.935,27.8c.329.161.68.283,1.078.444v-.352c0-2.335-.006-4.67.006-7.005,0-.225-.063-.306-.283-.363-1.055-.283-2.116-.565-3.154-.9a7.171,7.171,0,0,1-3.944-2.739,6.868,6.868,0,0,1-1.09-2.883A9.976,9.976,0,0,1,.544,10.99a7.9,7.9,0,0,1,1.62-3.73A8.892,8.892,0,0,1,7.117,4.151C7.728,4,8.356,3.9,9.008,3.771V0H14.2V.323c0,1.107.006,2.208-.006,3.315,0,.231.052.334.294.381a10.891,10.891,0,0,1,4.5,1.949,7.777,7.777,0,0,1,3.119,4.907c.115.6.179,1.211.271,1.845H16.7a3.971,3.971,0,0,0-2.479-3.6V16.2c.421.092.859.179,1.292.283a16.521,16.521,0,0,1,4.37,1.58,6.24,6.24,0,0,1,3.183,4.561,9.018,9.018,0,0,1-.375,4.768,8.125,8.125,0,0,1-1.978,3,9.38,9.38,0,0,1-4.18,2.318c-.692.19-1.4.329-2.1.467-.185.035-.236.1-.231.277.006.876.006,1.747.006,2.623Q11.608,36.074,9.014,36.077Zm5.207-7.8a.9.9,0,0,0,.156-.012,5.168,5.168,0,0,0,.588-.15A3.479,3.479,0,0,0,17.4,26a2.667,2.667,0,0,0-.49-2.877,6.253,6.253,0,0,0-2.693-1.343ZM9,14.939v-6.2a5.919,5.919,0,0,0-1.81.75,2.928,2.928,0,0,0-1.159,3.483,2.029,2.029,0,0,0,.4.657A5.153,5.153,0,0,0,9,14.939Z" transform="translate(23.004 13)"/>
  </g>
</svg>
