<svg xmlns="http://www.w3.org/2000/svg" xmlns:xlink="http://www.w3.org/1999/xlink" viewBox="0 0 70 62">
  <defs>
    <style>
      .cls-1 {
        clip-path: url(#clip-info);
      }

      .cls-2, .cls-3, .cls-5 {
        fill: none;
      }

      .cls-2 {
        stroke: #fff;
        stroke-width: 6px;
      }

      .cls-4, .cls-6 {
        stroke: none;
      }

      .cls-6 {
        fill: #fff;
      }
    </style>
    <clipPath id="clip-info">
      <rect width="70" height="62"/>
    </clipPath>
  </defs>
  <g id="info" class="cls-1">
    <g id="Group_1" data-name="Group 1" transform="translate(-804.951 -226.927)">
      <g id="Group_13" data-name="Group 13" transform="translate(823.861 237.728)">
        <g id="Ellipse_7" data-name="Ellipse 7" class="cls-2" transform="translate(5.702 0)">
          <circle class="cls-4" cx="9.978" cy="9.978" r="9.978"/>
          <circle class="cls-5" cx="9.978" cy="9.978" r="6.978"/>
        </g>
        <g id="Path_11" data-name="Path 11" class="cls-3" transform="translate(0 16.928)">
          <path class="cls-4" d="M15.68,0a15.68,15.68,0,0,1,15.68,15.68c0,8.66-31.359,8.66-31.359,0A15.68,15.68,0,0,1,15.68,0Z"/>
          <path class="cls-6" d="M 15.67960453033447 16.17431640625 C 20.45932579040527 16.17431640625 23.87417411804199 15.25424575805664 25.29295349121094 14.54372882843018 C 24.72906875610352 9.739456176757813 20.63287162780762 6.00000524520874 15.67960453033447 6.00000524520874 C 10.72633743286133 6.00000524520874 6.630140781402588 9.739456176757813 6.066255569458008 14.54372882843018 C 7.485035419464111 15.25424575805664 10.89988231658936 16.17431640625 15.67960453033447 16.17431640625 M 15.67960453033447 22.17431449890137 C 7.839804649353027 22.17431449890137 4.530334535957081e-06 20.0094108581543 4.530334535957081e-06 15.67960548400879 C 4.530334535957081e-06 7.019994258880615 7.019993305206299 5.255126779957209e-06 15.67960453033447 5.255126779957209e-06 C 24.3392162322998 5.255126779957209e-06 31.35920524597168 7.019994258880615 31.35920524597168 15.67960548400879 C 31.35920524597168 20.0094108581543 23.51940536499023 22.17431449890137 15.67960453033447 22.17431449890137 Z"/>
        </g>
      </g>
    </g>
  </g>
</svg>
