<svg xmlns="http://www.w3.org/2000/svg" xmlns:xlink="http://www.w3.org/1999/xlink" viewBox="0 0 70 62">
  <defs>
    <style>
      .cls-1 {
        clip-path: url(#clip-prescription);
      }

      .cls-2 {
        fill: #fff;
      }
    </style>
    <clipPath id="clip-prescription">
      <rect width="70" height="62"/>
    </clipPath>
  </defs>
  <g id="prescription" class="cls-1">
    <path id="Path_14" data-name="Path 14" class="cls-2" d="M6.081,17.116V27.831a1.127,1.127,0,0,1-.953,1.137,1.8,1.8,0,0,1-.414.04c-1.107,0-2.2.008-3.31,0-.856,0-1.386-.451-1.386-1.161C0,24.687,0,21.534,0,18.382V1.185A1.16,1.16,0,0,1,1.049.016C1.164.008,1.28,0,1.4,0h11.8a20.687,20.687,0,0,1,4.06.363,7.088,7.088,0,0,1,4.936,3.306,8.472,8.472,0,0,1,.394,8.667,7.681,7.681,0,0,1-4.561,3.717c-.1.032-.192.073-.327.113,1.049,1.322,2.1,2.644,3.166,3.983.067-.089.115-.153.164-.226.674-.838,1.337-1.685,2.021-2.515a1.312,1.312,0,0,1,1.058-.468c1.251-.008,2.5-.016,3.753.008,1.107.024,1.665.935,1.078,1.725-1.52,2.048-3.041,4.1-4.58,6.143a.338.338,0,0,0-.01.468c1.53,2.064,3.05,4.128,4.58,6.192a1.047,1.047,0,0,1,.241.822,1.211,1.211,0,0,1-1.232.927c-1.3.016-2.588.008-3.887,0a1.265,1.265,0,0,1-1.02-.476c-.654-.806-1.3-1.621-1.944-2.427-.067-.089-.135-.185-.221-.3-.587.838-1.164,1.653-1.713,2.475a1.627,1.627,0,0,1-1.52.742c-1.251-.024-2.5-.008-3.753-.008-1.155,0-1.761-.871-1.183-1.709,1.424-2.08,2.858-4.16,4.282-6.24.077-.113.125-.2.038-.339q-2.165-3.156-4.33-6.321a3.6,3.6,0,0,0-1.655-1.3,3,3,0,0,0-1.039-.218c-1.289-.032-2.569-.024-3.858-.032C6.129,17.1,6.11,17.108,6.081,17.116Zm0-5.289c.1,0,.164.008.231.008,2.049,0,4.089.008,6.139-.008a17.969,17.969,0,0,0,1.867-.137A3.1,3.1,0,0,0,17.06,9.868a3.527,3.527,0,0,0,.125-2.636,2.925,2.925,0,0,0-2.5-1.959,8.985,8.985,0,0,0-1.472-.129c-2.29-.016-4.58-.008-6.88-.008h-.26C6.081,7.393,6.081,9.6,6.081,11.827Z" transform="translate(20 14)"/>
  </g>
</svg>
