<svg xmlns="http://www.w3.org/2000/svg" xmlns:xlink="http://www.w3.org/1999/xlink" viewBox="0 0 23 28">
  <defs>
    <style>
      .cls-1 {
        clip-path: url(#clip-delete);
      }

      .cls-2 {
        fill: #ff3131;
      }
    </style>
    <clipPath id="clip-delete">
      <rect width="23" height="28"/>
    </clipPath>
  </defs>
  <g id="delete" class="cls-1">
    <g id="Group_194" data-name="Group 194" transform="translate(2 2)">
      <path id="Path_14" data-name="Path 14" class="cls-2" d="M16.515,24.167H2.645c-.036-.05-.057-.122-.1-.136A1.684,1.684,0,0,1,1.458,22.2q.011-7.282,0-14.572V7.45c.014-.2-.079-.279-.272-.272a6.872,6.872,0,0,1-.858-.007c-.1-.014-.257-.15-.257-.236C.056,6.106.056,5.27.078,4.433A1.618,1.618,0,0,1,1.844,2.839c.915-.007,1.83-.007,2.753,0,.25,0,.372-.071.35-.35-.021-.343.007-.694,0-1.037C4.933.929,4.875.386,5.362,0H13.8a1.75,1.75,0,0,1,.479,1.58c-.007.3.014.6-.007.894s.079.372.365.365c.944-.014,1.88-.021,2.824.007a1.555,1.555,0,0,1,1.594,1.366c.029.643.043,1.287.05,1.923.014,1.022.014,1.037-1.015,1.03-.286,0-.386.071-.386.379q.011,7.411.007,14.829a1.573,1.573,0,0,1-1.051,1.637C16.594,24.038,16.558,24.117,16.515,24.167ZM2.959,14.908h0c0,2.452.007,4.9-.007,7.357,0,.286.057.4.372.4q6.253-.011,12.505,0c.272,0,.372-.064.372-.358q-.011-7.357,0-14.722c0-.336-.1-.415-.429-.415q-6.2.011-12.4,0c-.322,0-.429.079-.422.415C2.966,10.031,2.959,12.47,2.959,14.908ZM9.537,5.677H16.93c.858,0,.729.064.736-.751.007-.579,0-.579-.565-.579H2.351c-.951,0-.858-.107-.865.858,0,.472,0,.472.479.472Zm0-2.839h2.288c.958,0,.944,0,.965-.944.007-.329-.107-.4-.408-.4-1.866.014-3.739.014-5.606,0-.336,0-.45.107-.408.436a2.55,2.55,0,0,1,0,.572c-.029.279.1.343.35.343C7.657,2.831,8.6,2.839,9.537,2.839Z" transform="translate(-0.061)"/>
      <path id="Path_15" data-name="Path 15" class="cls-2" d="M124.2,131.724c0,1.93-.007,3.861.007,5.791,0,.286-.064.415-.372.393a6.876,6.876,0,0,0-.858,0c-.207.007-.293-.064-.286-.293q.011-5.856,0-11.719c0-.257.079-.379.35-.35.222.021.45.007.679.007.479-.007.479-.007.479.458v5.713Z" transform="translate(-113.926 -116.566)"/>
      <path id="Path_16" data-name="Path 16" class="cls-2" d="M74.607,131.594c0-1.916.007-3.84-.007-5.756,0-.315.079-.472.422-.429a2.878,2.878,0,0,0,.608.007c.315-.021.415.122.415.422q-.011,5.792,0,11.583c0,.272-.1.35-.357.357-1.08.021-1.08.029-1.08-1.03C74.614,135.026,74.607,133.311,74.607,131.594Z" transform="translate(-69.27 -116.437)"/>
      <path id="Path_17" data-name="Path 17" class="cls-2" d="M172.207,131.773c0-1.916.007-3.832-.007-5.749,0-.322.086-.436.429-.429,1.165.029,1-.143,1,1.008.007,3.646,0,7.286.007,10.932,0,.329-.079.436-.415.429-1.008-.014-1.008,0-1.008-1.008Q172.2,134.362,172.207,131.773Z" transform="translate(-159.892 -116.616)"/>
    </g>
  </g>
</svg>
