<svg xmlns="http://www.w3.org/2000/svg" xmlns:xlink="http://www.w3.org/1999/xlink" viewBox="0 0 30 29">
  <defs>
    <style>
      .cls-1 {
        clip-path: url(#clip-supplier_list);
      }

      .cls-2, .cls-3, .cls-5, .cls-7 {
        fill: none;
      }

      .cls-2 {
        stroke: #fff;
        stroke-width: 1.2px;
      }

      .cls-4, .cls-8 {
        fill: #fff;
      }

      .cls-5 {
        stroke: #707070;
      }

      .cls-6, .cls-8 {
        stroke: none;
      }
    </style>
    <clipPath id="clip-supplier_list">
      <rect width="30" height="29"/>
    </clipPath>
  </defs>
  <g id="supplier_list" data-name="supplier list" class="cls-1">
    <g id="Group_78" data-name="Group 78" transform="translate(0.426 -1.436)">
      <g id="Ellipse_11" data-name="Ellipse 11" class="cls-2" transform="translate(10.171 7)">
        <circle class="cls-6" cx="4.264" cy="4.264" r="4.264"/>
        <circle class="cls-7" cx="4.264" cy="4.264" r="3.664"/>
      </g>
      <g id="Path_38" data-name="Path 38" class="cls-3" transform="translate(7.414 14.463)">
        <path class="cls-6" d="M7.021,0a7.021,7.021,0,0,1,7.021,7.021C14.042,10.9,0,10.9,0,7.021A7.021,7.021,0,0,1,7.021,0Z"/>
        <path class="cls-8" d="M 7.021185398101807 8.729459762573242 C 8.697965621948242 8.729459762573242 10.30624580383301 8.491390228271484 11.43363571166992 8.076299667358398 C 12.28941535949707 7.761209964752197 12.84237575531006 7.347060203552246 12.84237575531006 7.021190166473389 C 12.84237575531006 3.811369895935059 10.23100566864014 1.200000047683716 7.021185398101807 1.200000047683716 C 3.811365365982056 1.200000047683716 1.199995398521423 3.811369895935059 1.199995398521423 7.021190166473389 C 1.199995398521423 7.347060203552246 1.752955436706543 7.761209964752197 2.608735322952271 8.076299667358398 C 3.736125469207764 8.491390228271484 5.344405174255371 8.729459762573242 7.021185398101807 8.729459762573242 M 7.021185398101807 9.929457664489746 C 3.510590314865112 9.929457664489746 -4.601898126566084e-06 8.96003532409668 -4.601898126566084e-06 7.021190166473389 C -4.601898126566084e-06 3.143490076065063 3.143495321273804 2.441406188324891e-09 7.021185398101807 2.441406188324891e-09 C 10.89887523651123 2.441406188324891e-09 14.0423755645752 3.143490076065063 14.0423755645752 7.021190166473389 C 14.0423755645752 8.96003532409668 10.53178024291992 9.929457664489746 7.021185398101807 9.929457664489746 Z"/>
      </g>
      <path id="Path_39" data-name="Path 39" class="cls-4" d="M.043,0h1.2l.337,5.563L.717,6.65-.219,5.563Z" transform="translate(14.062 14.463)"/>
    </g>
    <path id="Path_40" data-name="Path 40" class="cls-5" d="M13.531,20" transform="translate(0 -2)"/>
  </g>
</svg>
