<svg xmlns="http://www.w3.org/2000/svg" xmlns:xlink="http://www.w3.org/1999/xlink" viewBox="0 0 26 29">
  <defs>
    <style>
      .cls-1 {
        clip-path: url(#clip-notification);
      }

      .cls-2 {
        fill: #564780;
      }
    </style>
    <clipPath id="clip-notification">
      <rect width="26" height="29"/>
    </clipPath>
  </defs>
  <g id="notification" class="cls-1">
    <g id="Group_79" data-name="Group 79" transform="translate(1.084 1)">
      <path id="Path_13" data-name="Path 13" class="cls-2" d="M11.25,26.625a4.255,4.255,0,0,1-3.112-2.379c-.154-.32-.249-.663-.4-1.053H5.31c-1.538,0-3.077.024-4.615-.024a1.01,1.01,0,0,1-.757-.485.922.922,0,0,1,.284-.84A5.5,5.5,0,0,0,2.8,17.857a24.818,24.818,0,0,0,.414-3.5,47.762,47.762,0,0,1,.237-4.887A7.964,7.964,0,0,1,7.878,3.609a1.105,1.105,0,0,0,.675-.9A3.16,3.16,0,0,1,10.931.118c.107-.036.213-.083.32-.118h1.065a12.149,12.149,0,0,1,1.692.9,2.988,2.988,0,0,1,1.065,1.976.908.908,0,0,0,.426.592,8.578,8.578,0,0,1,4.84,7.928c.036,1.728,0,3.479.189,5.183a13.532,13.532,0,0,0,.947,3.266A3.527,3.527,0,0,0,23.2,21.726a.763.763,0,0,1,.485.9c-.106.438-.438.556-.864.556H15.818a4.256,4.256,0,0,1-2.177,2.947,10.272,10.272,0,0,1-1.314.485C11.96,26.625,11.605,26.625,11.25,26.625Zm7.727-9.017c-.047-2-.095-3.964-.142-5.929a10.239,10.239,0,0,0-.071-1.479,7.051,7.051,0,0,0-14.011.4c-.083,2.331-.107,4.662-.154,7.005ZM20.835,21.7a5.651,5.651,0,0,0-.485-.757c-.45-.544-.343-1.538-1.065-1.763a7.407,7.407,0,0,0-2.177-.047q-6.266,0-12.532.012c-.213,0-.533.059-.6.2-.4.769-.757,1.562-1.124,2.367C8.8,21.7,14.765,21.7,20.835,21.7ZM9.357,23.193a2.531,2.531,0,0,0,2.5,1.929,2.436,2.436,0,0,0,2.308-1.905c-.118-.012-.237-.024-.343-.024ZM13.463,2.757A1.714,1.714,0,0,0,11.641,1.5a1.57,1.57,0,0,0-1.5,1.254c.544-.036,1.089-.118,1.633-.118C12.339,2.639,12.9,2.71,13.463,2.757Z"/>
    </g>
  </g>
</svg>
